<?xml version="1.0" encoding="utf-8"?>
<!-- Generator: Adobe Illustrator 16.0.0, SVG Export Plug-In . SVG Version: 6.00 Build 0)  -->
<!DOCTYPE svg PUBLIC "-//W3C//DTD SVG 1.1//EN" "http://www.w3.org/Graphics/SVG/1.1/DTD/svg11.dtd">
<svg version="1.1" id="Layer_1" xmlns="http://www.w3.org/2000/svg" xmlns:xlink="http://www.w3.org/1999/xlink" x="0px" y="0px"
	 width="600px" height="600px" viewBox="0 0 600 600" enable-background="new 0 0 600 600" xml:space="preserve">
<path fill="#FFFFFF" d="M344.14,458.755c0-44.285,0.103-88.567-0.125-132.854c-0.03-5.859,1.161-7.936,7.557-7.853
	c29.169,0.372,58.358-0.197,87.521,0.392c8.266,0.163,11.07-2.638,11.336-10.289c0.938-27.027,2.197-54.041,3.115-81.068
	c0.342-10.066,0.061-10.097-10.322-10.103c-30.737-0.014-61.475-0.021-92.215,0.007c-3.818,0.004-7.025,0.289-6.969-5.438
	c0.259-25.526-0.85-51.104,0.426-76.569c0.998-20.002,5.275-30.092,25.245-35.121c5.72-1.442,11.807-1.894,17.735-1.962
	c18.493-0.21,36.999-0.349,55.481,0.173c7.385,0.208,9.351-2.332,9.161-9.374c-0.364-13.266,0.057-26.561,0.334-39.838
	c0.27-12.758,0.684-25.513,1.222-38.261c0.183-4.427-1.032-6.926-5.966-6.911c-2.547,0.007-5.078-1.008-7.65-1.22
	c-23.121-1.909-46.286-1.903-69.463-1.704c-14.115,0.122-27.838,2.573-41.371,6.292c-58.116,15.976-92.178,63.892-91.54,122.001
	c0.285,26.308-0.216,52.624,0.197,78.928c0.114,7.37-2.356,9.285-9.381,9.135c-19.264-0.412-38.551-0.057-57.827-0.188
	c-5.317-0.038-8.049,1.302-7.993,7.473c0.262,28.914,0.224,57.831,0.019,86.746c-0.038,5.534,1.958,7.215,7.31,7.15
	c18.756-0.231,37.511-0.091,56.267-0.087c11.424,0,11.438,0.004,11.438,11.29c-0.011,87.005,0.038,174.013-0.174,261.017
	c-0.015,6.857,1.404,9.45,8.957,9.332c29.693-0.467,59.395-0.398,89.088-0.041c7.04,0.087,8.763-2.273,8.722-8.979
	C344.015,546.807,344.14,502.783,344.14,458.755z"/>
</svg>
