<?xml version="1.0" encoding="utf-8"?>
<!-- Generator: Adobe Illustrator 16.0.0, SVG Export Plug-In . SVG Version: 6.00 Build 0)  -->
<!DOCTYPE svg PUBLIC "-//W3C//DTD SVG 1.1//EN" "http://www.w3.org/Graphics/SVG/1.1/DTD/svg11.dtd">
<svg version="1.1" id="Layer_1" xmlns="http://www.w3.org/2000/svg" xmlns:xlink="http://www.w3.org/1999/xlink" x="0px" y="0px"
	 width="600px" height="600px" viewBox="0 0 600 600" enable-background="new 0 0 600 600" xml:space="preserve">
<path fill-rule="evenodd" clip-rule="evenodd" fill="#FFFFFF" d="M315.497,355.29c-4.409-6.077-8.753-11.856-12.916-17.765
	c-13.505-19.098-14.915-39.352-5.612-60.589c0.646-1.474,1.274-2.961,1.888-4.454c0.078-0.188-0.013-0.439-0.019-0.459
	c-10.247,0.317-20.487,1.015-30.715,0.886c-27.081-0.343-52.623-6.782-75.482-21.605c-38.847-25.193-58.345-61.357-56.91-107.529
	c1.067-34.108,15.393-63.375,39.144-87.695C202.144,28.152,235.625,12.152,274,5.784c23.39-3.879,46.863-5.896,70.576-5.786
	c52.727,0.246,105.453,0.078,158.181,0.078c1.15,0,2.301,0,4.318,0c-1.5,0.976-2.25,1.551-3.077,1.998
	c-15.723,8.488-31.445,16.996-47.219,25.381c-1.552,0.814-3.491,1.202-5.25,1.215c-15.567,0.09-31.134,0.052-47.813,0.052
	c1.629,1.351,2.586,2.172,3.568,2.941c15.774,12.354,29.479,26.557,39.125,44.284c19.562,35.886,21.541,72.665,4.629,109.973
	c-7.965,17.571-21.191,31.199-35.893,43.366c-6.827,5.657-14.391,10.492-20.895,16.492c-7.162,6.613-14.352,13.524-19.976,21.412
	c-8.986,12.619-6.452,31.36,5.262,41.53c11.12,9.658,22.964,18.489,34.548,27.617c16.499,12.981,33.087,25.886,47.426,41.336
	c32.842,35.376,36.126,82.581,17.753,122.017c-14.235,30.592-37.768,52.301-66.833,68.32
	c-33.772,18.579-70.221,28.186-108.531,31.186c-25.723,2.018-51.414,1.9-76.996-1.564c-31.774-4.293-61.958-13.355-88.729-31.69
	c-14.992-10.253-27.32-23.015-35.285-39.564c-11.41-23.739-11.216-47.632-2.062-72.134c9.296-24.863,25.833-43.172,47.897-57.266
	c25.905-16.55,54.556-25.523,84.269-31.858c26.364-5.638,53.122-7.86,79.957-9.555C313.727,355.51,314.476,355.394,315.497,355.29z
	 M311.684,567.309c0.051,0.311,0.077,0.621,0.116,0.932c14.08-1.475,28.264-2.328,42.215-4.564
	c19.989-3.193,38.4-10.524,53.994-23.984c24.256-20.945,33.229-53.812,22.148-82.076c-5.65-14.417-15.115-26.377-27.062-35.789
	c-17.908-14.119-36.721-27.102-55.055-40.678c-3.336-2.482-6.995-3.465-10.964-3.516c-27.772-0.337-55.3,1.783-82.394,8.209
	c-19.207,4.564-37.638,11.029-53.793,22.718c-13.046,9.438-24.172,20.998-29.305,36.384c-9.484,28.445-5.004,54.938,14.791,77.992
	c13.396,15.605,30.688,25.625,49.837,32.595C260.592,564.387,285.947,567.128,311.684,567.309z M389.261,165.271
	c-1.138-7.596-2.354-19.782-4.888-31.684c-6.206-28.981-17.895-55.468-38.064-77.642c-14.106-15.522-30.617-27.159-52.249-29.027
	c-29.822-2.573-54.459,7.228-72.231,31.93c-10.04,13.964-12.438,30.288-13.175,46.94c-0.744,16.983,1.991,33.578,6.355,49.908
	c7.124,26.622,19.265,50.438,38.886,70.272c27.495,27.799,62.172,30.081,90.346,18.069c17.248-7.344,31.38-18.302,38.62-36.125
	C387.761,195.823,388.64,182.835,389.261,165.271z"/>
</svg>
