<?xml version="1.0" encoding="utf-8"?>
<!-- Generator: Adobe Illustrator 16.0.0, SVG Export Plug-In . SVG Version: 6.00 Build 0)  -->
<!DOCTYPE svg PUBLIC "-//W3C//DTD SVG 1.1//EN" "http://www.w3.org/Graphics/SVG/1.1/DTD/svg11.dtd">
<svg version="1.1" id="Layer_1" xmlns="http://www.w3.org/2000/svg" xmlns:xlink="http://www.w3.org/1999/xlink" x="0px" y="0px"
	 width="600px" height="600px" viewBox="0 0 600 600" enable-background="new 0 0 600 600" xml:space="preserve">
<path fill="#FFFFFF" d="M-45.86-1335.245c0-44.285,0.104-88.567-0.125-132.854c-0.029-5.858,1.161-7.936,7.558-7.853
	c29.169,0.372,58.357-0.196,87.521,0.392c8.267,0.164,11.07-2.638,11.336-10.289c0.938-27.026,2.197-54.041,3.115-81.067
	c0.342-10.066,0.062-10.097-10.322-10.103c-30.736-0.014-61.475-0.021-92.215,0.007c-3.817,0.004-7.024,0.289-6.969-5.438
	c0.259-25.526-0.85-51.104,0.426-76.569c0.998-20.002,5.275-30.092,25.245-35.121c5.72-1.442,11.807-1.894,17.735-1.962
	c18.493-0.21,36.999-0.349,55.48,0.173c7.385,0.208,9.352-2.332,9.161-9.374c-0.364-13.266,0.057-26.561,0.334-39.838
	c0.271-12.758,0.685-25.513,1.222-38.261c0.184-4.427-1.031-6.926-5.966-6.911c-2.547,0.007-5.078-1.008-7.649-1.22
	c-23.121-1.909-46.286-1.903-69.463-1.704c-14.115,0.122-27.839,2.573-41.371,6.292c-58.116,15.976-92.178,63.892-91.541,122.001
	c0.285,26.308-0.216,52.624,0.197,78.928c0.114,7.37-2.356,9.285-9.381,9.135c-19.264-0.412-38.551-0.057-57.827-0.188
	c-5.317-0.038-8.049,1.302-7.993,7.473c0.262,28.914,0.224,57.831,0.019,86.746c-0.038,5.535,1.958,7.215,7.31,7.15
	c18.756-0.23,37.511-0.091,56.267-0.087c11.424,0,11.438,0.004,11.438,11.29c-0.011,87.005,0.038,174.013-0.174,261.017
	c-0.015,6.857,1.404,9.45,8.957,9.332c29.693-0.467,59.395-0.397,89.088-0.041c7.04,0.087,8.764-2.272,8.723-8.979
	C-45.985-1247.193-45.86-1291.217-45.86-1335.245z"/>
<g>
	<path fill-rule="evenodd" clip-rule="evenodd" fill="#F9F9F9" d="M361.495,31.097c-0.531,0.215-1.073,0.398-1.584,0.646
		c-27.711,13.485-55.402,27.01-83.154,40.409c-2.569,1.241-3.367,2.675-3.365,5.534c0.085,143.815,0.076,287.631,0.073,431.446
		c0,1.465-0.038,2.93-0.058,4.395c-5.504,0.201-10.863-1.017-16.202-1.981c-23.764-4.297-46.892-10.765-68.979-20.717
		c-25.293-11.396-48.278-26.016-66.414-47.387c-16.398-19.324-26.006-41.18-24.75-67.089c0.396-8.162,1.819-16.094,4.507-23.744
		c7.604-21.644,21.588-38.693,39.06-53.088c14.472-11.923,30.528-21.258,47.632-28.907c21.554-9.638,44.036-16.123,67.213-20.323
		c1.826-0.331,2.479-0.918,2.474-2.765c-0.05-17.099-0.062-34.198,0.011-51.297c0.009-2.144-0.92-2.465-2.667-2.22
		c-5.973,0.84-11.977,1.494-17.92,2.503c-15.644,2.657-31.112,6.114-46.427,10.293c-13.602,3.712-27.029,7.999-40.085,13.26
		c-13.648,5.5-27.048,11.588-39.915,18.849c-25.613,14.455-49.026,31.594-68.087,54.228c-17.844,21.189-30.078,44.982-33.609,72.788
		c-0.093,0.731,0.081,1.684-1.161,1.585c0,0.392,0,0.782,0,1.173c0,1.954,0,3.909,0,5.863c0,4.104,0,8.209,0,12.313
		c0,1.954,0,3.909,0,5.863c0,0.392,0,0.782,0,1.173c1.434-0.015,1.081,1.112,1.163,1.895c0.722,6.903,2.35,13.617,4.354,20.236
		c7.019,23.183,19.948,42.845,36.358,60.354c12.402,13.233,26.445,24.564,41.602,34.466c33.247,21.716,69.601,36.239,107.937,46.057
		c18.028,4.616,36.291,8.074,54.747,10.409c6.455,0.817,12.906,1.938,19.459,1.833c0.804-0.338,1.623-0.646,2.412-1.017
		c27.641-12.949,55.265-25.933,82.939-38.806c2.198-1.023,2.882-2.236,2.881-4.612c-0.057-163.454-0.051-326.907-0.066-490.36
		C361.872,33.323,362.158,32.235,361.495,31.097z"/>
	<path fill-rule="evenodd" clip-rule="evenodd" fill="#F9F9F9" d="M591.561,343.032c-0.303-3.201-0.48-6.414-0.795-9.613
		c-1.094-11.141-2.25-22.275-3.331-33.417c-0.865-8.917-1.628-17.843-2.483-26.76c-1.115-11.627-2.273-23.251-3.422-34.875
		c-0.619-6.26-1.258-12.518-1.916-19.047c-0.933,0.433-1.648,0.708-2.31,1.081c-13.266,7.465-26.539,14.918-39.773,22.438
		c-2.069,1.176-3.739,1.707-6.103,0.252c-13.243-8.152-27.257-14.817-41.609-20.749c-35.246-14.566-71.991-23.366-109.723-28.343
		c-2.056-0.271-2.709,0.357-2.7,2.465c0.071,16.901,0.074,33.803-0.003,50.705c-0.01,2.15,0.805,2.806,2.805,3.146
		c4.893,0.831,9.763,1.83,14.598,2.947c21.452,4.956,42.19,11.988,61.921,21.808c3.883,1.933,7.929,3.69,11.64,6.52
		c-15.783,8.888-31.324,17.641-46.865,26.393c17.758,4.457,35.239,8.257,52.724,12.048c26.161,5.671,52.324,11.331,78.484,17.003
		c12.178,2.64,24.358,5.264,36.521,7.973C591.125,345.432,591.739,344.907,591.561,343.032z"/>
</g>
</svg>
