<?xml version="1.0" encoding="utf-8"?>
<!-- Generator: Adobe Illustrator 16.0.0, SVG Export Plug-In . SVG Version: 6.00 Build 0)  -->
<!DOCTYPE svg PUBLIC "-//W3C//DTD SVG 1.1//EN" "http://www.w3.org/Graphics/SVG/1.1/DTD/svg11.dtd">
<svg version="1.1" id="Layer_1" xmlns="http://www.w3.org/2000/svg" xmlns:xlink="http://www.w3.org/1999/xlink" x="0px" y="0px"
	 width="600px" height="600px" viewBox="0 0 600 600" enable-background="new 0 0 600 600" xml:space="preserve">
<path opacity="0.8" fill-rule="evenodd" clip-rule="evenodd" fill="#E2E2E2" enable-background="new    " d="M581.489,497.33
	c-51.012-51.039-102.058-102.044-153.144-153.002c-2.689-2.682-5.876-4.859-7.995-6.593c0.386-2.395,0.382-3.004,0.593-3.525
	c0.437-1.091,0.951-2.15,1.496-3.193c23.393-44.768,31.012-91.99,22.898-141.925C427.015,76.355,319.292-14.947,187.97,7.623
	C64.152,28.903-15.395,146.343,8.485,269.314c28.25,145.467,190.057,223.326,320.647,154.112c5.601-2.97,8.436-2.062,12.59,2.124
	c51.692,52.021,103.562,103.869,155.416,155.728c24.382,24.381,62.085,25.015,85.479,1.523
	C606.311,559.002,605.867,521.718,581.489,497.33z M224.386,388.872C134.08,388.561,62.274,314.837,63.613,221.57
	c1.289-89.843,77.219-160.198,166.896-158.821c86.63,1.329,158.873,74.854,158.633,163.609
	C388.898,317.285,316.007,389.181,224.386,388.872z"/>
</svg>
