<?xml version="1.0" encoding="utf-8"?>
<!-- Generator: Adobe Illustrator 16.0.0, SVG Export Plug-In . SVG Version: 6.00 Build 0)  -->
<!DOCTYPE svg PUBLIC "-//W3C//DTD SVG 1.1//EN" "http://www.w3.org/Graphics/SVG/1.1/DTD/svg11.dtd">
<svg version="1.1" id="Layer_1" xmlns="http://www.w3.org/2000/svg" xmlns:xlink="http://www.w3.org/1999/xlink" x="0px" y="0px"
	 width="600px" height="600px" viewBox="0 0 600 600" enable-background="new 0 0 600 600" xml:space="preserve">
<path fill="#FFFFFF" d="M86.896,135.267c5.542,2.029,10.694,3.837,15.794,5.8c7.967,3.057,15.936,6.106,23.821,9.363
	c8.775,3.624,17.501,7.363,26.158,11.253c20.566,9.231,41.182,18.366,61.562,27.979c10.299,4.86,20.094,10.76,30.201,16.023
	c11.269,5.874,20.58,14.26,29.848,22.727c4.264,3.903,8.518,7.819,13.032,11.957c3.131-8.143,5.932-16.17,9.289-23.96
	c5.013-11.619,9.965-23.307,15.783-34.536c6.968-13.458,14.151-26.885,22.476-39.511c7.114-10.797,15.494-20.891,24.213-30.467
	c6.304-6.915,13.741-12.934,23.592-17.675c-0.98,4.19-1.745,7.511-2.646,11.4c12.533-8.159,25.637-14.104,40.457-16.104
	c1.604,6.438-3.015,10.062-5.327,13.472c7.572-1.229,15.728-2.823,23.96-3.748c3.24-0.369,6.8,0.609,8.4,4.24
	c1.481,3.36,0.712,7.584-2.872,9.98c-5.018,3.36-10.394,6.388-16.002,8.607c-6.957,2.744-14.289,4.514-20.598,6.446
	c7.653,1.75,16.274,3.286,24.614,5.763c7.367,2.182,14.637,4.983,21.566,8.291c12.207,5.842,22.728,14.236,32.13,23.895
	c13.946,14.323,24.287,31.073,31.593,49.602c3.311,8.401,5.565,17.227,8.176,25.9c0.753,2.514,2.177,3.726,4.77,4.095
	c7.7,1.094,15.338,2.799,23.069,3.418c5.993,0.469,12.144,0.116,18.104-0.707c6.709-0.925,13.304-2.735,19.912-4.285
	c1.576-0.375,3.03-1.278,4.859-2.072c0.949,5.313-2.045,9.158-4.912,12.56c-8.375,9.922-19.316,15.794-31.866,18.816
	c-6.439,1.542-12.896,3.107-19.11,4.606c2.107,2.111,19.048,5.637,28.407,5.645c10.058,0.008,20.113,0,30.756,0
	c-0.448,0.928-0.766,2.288-1.598,3.16c-9.182,9.651-20.129,16.272-32.899,20.379c-9.371,3.015-18.905,4.101-28.572,4.912
	c-0.728,0.058-1.48,0.095-2.188-0.021c-7.353-1.275-6.336-2.22-8.708,5.936c-5.786,19.976-13.396,39.182-24.466,56.839
	c-6.282,10.024-12.564,20.165-20.034,29.294c-8.217,10.046-17.388,19.406-26.875,28.293c-11.506,10.784-24.323,20.113-38.018,27.93
	c-12.665,7.227-25.684,13.982-39.056,19.733c-13.54,5.812-27.556,10.678-41.659,14.958c-12.528,3.8-25.415,6.467-38.249,9.148
	c-7.255,1.523-14.7,2.209-22.087,3.031c-6.217,0.686-12.473,1.122-18.719,1.496c-9.532,0.564-19.088,1.492-28.62,1.339
	c-11.208-0.179-22.49-0.722-33.59-2.25c-12.399-1.724-24.77-4.159-36.881-7.332c-10.613-2.771-20.843-6.999-31.245-10.583
	c-17.859-6.156-34.322-15.175-50.213-25.184c-15.596-9.824-29.993-21.304-43.509-33.854c-11.208-10.42-21.352-21.825-30.546-34.043
	c-1.278-1.708-1.992-3.848-2.477-6.088c34.646,27.435,73.226,42.894,117.597,39.588c38.299-2.855,70.353-20.603,99.494-45.438
	c-4.578-0.427-8.607-0.332-12.399-1.228c-10.148-2.414-19.828-5.861-25.209-15.93c-4.82-9.018-2.432-18.354,4.204-25.395
	c2.991-3.162,6.491-5.851,9.334-8.385c-5.887-0.892-12.325-1.449-18.542-2.932c-5.851-1.407-11.783-3.146-17.104-5.866
	c-10.707-5.477-19.691-13.214-26.348-23.401c-0.522-0.801-1.081-1.594-1.516-2.439c-2.749-5.374-2.382-7.395,2.316-11.171
	c6.694-5.41,14.471-8.518,22.807-10.349c1.344-0.292,2.675-0.646,4.011-0.978c-6.077-2.609-12.186-4.968-18.065-7.806
	c-9.092-4.388-17.169-10.075-23.899-17.852c-6.088-7.026-10.586-14.692-13.077-23.57c-0.838-2.986-1.455-6.043-1.993-9.1
	c-0.337-1.969,0.045-3.308,2.675-3.689c9.005-1.278,17.965-2.91,26.976-4.409C104.572,193.294,85.566,170.57,86.896,135.267z"/>
</svg>
