<?xml version="1.0" encoding="utf-8"?>
<!-- Generator: Adobe Illustrator 16.0.0, SVG Export Plug-In . SVG Version: 6.00 Build 0)  -->
<!DOCTYPE svg PUBLIC "-//W3C//DTD SVG 1.1//EN" "http://www.w3.org/Graphics/SVG/1.1/DTD/svg11.dtd">
<svg version="1.1" id="Layer_1" xmlns="http://www.w3.org/2000/svg" xmlns:xlink="http://www.w3.org/1999/xlink" x="0px" y="0px"
	 width="600px" height="600px" viewBox="0 0 600 600" enable-background="new 0 0 600 600" xml:space="preserve">
<path fill-rule="evenodd" clip-rule="evenodd" fill="#FFFFFF" d="M285.75,112.574c-0.895,6.612-1.524,12.895-2.763,19.055
	c-0.266,1.347-2.635,3.058-4.188,3.225c-11.347,1.234-22.732,2.158-34.118,3.102c-14.552,1.204-29.104,2.311-43.655,3.535
	c-1.642,0.138-3.245,0.752-5.604,1.327c38.759,57.416,82.857,110.181,123.533,165.07c22.595-18.75,45.268-37.132,67.43-56.103
	c12.782-10.948,24.965-22.639,36.97-34.448c4.287-4.203,7.247-9.729,11.74-15.938c-7.335-1.376-12.871-2.655-18.485-3.426
	c-18.15-2.498-36.34-4.744-54.48-7.311c-1.524-0.216-3.766-1.883-4.051-3.225c-1.73-7.994-2.979-16.09-4.7-25.889
	c81.991,0.005,163.364,1.141,246.624,1.731c-3.599,5.29-6.784,8.942-8.819,13.155c-5.398,11.15-14.188,15.452-26.302,17.118
	c-16.812,2.315-33.391,6.553-49.918,10.555c-4.76,1.15-9.371,3.82-13.461,6.642c-49.182,33.838-95.747,70.881-138.675,112.487
	c-12.645,12.261-19.39,26.075-19.448,43.576c-0.039,13.304-1.672,26.646-0.904,39.881c0.914,16.017,3.52,31.944,5.702,47.873
	c0.167,1.229,2.714,2.92,4.267,3.038c7.267,0.561,14.572,0.776,21.867,0.875c18.564,0.266,37.117,0.384,55.671,0.63
	c2.409,0.029,4.798,0.481,7.935,0.825c-0.452,8.928-0.796,17.669-1.504,26.38c-0.079,0.816-2.419,2.085-3.707,2.085
	c-55.11-0.06-110.23-0.501-165.35-0.285c-33.715,0.138-67.43,1.269-101.145,1.937c-2.212,0.05-4.435,0.01-7.531,0.01
	c1.622-9.104,2.939-17.521,4.788-25.81c0.236-1.052,3.205-2.055,4.936-2.114c15.732-0.58,31.483-0.53,47.176-1.533
	c7.551-0.492,15.103-2.429,22.447-4.474c6.706-1.868,10.825-6.617,10.963-13.952c0.138-8.22,0.177-16.439,0.138-24.659
	c-0.118-18.554-0.364-37.107-0.452-55.671c-0.04-10.56-2.733-19.891-9.134-28.73c-32.014-44.211-66.476-86.46-101.952-127.884
	c-12.428-14.512-25.8-28.214-38.307-42.662c-8.79-10.162-19.271-15.506-32.771-16.789c-19.911-1.893-39.673-5.206-59.535-7.635
	c-3.992-0.486-4.877-2.188-4.837-5.781c0.04-5.221-0.177-10.476-0.738-15.668c-0.363-3.412,0.738-4.965,4.081-5.039
	c11.238-0.246,22.477-0.747,33.705-0.673c21.355,0.143,42.721,0.993,64.077,0.855c27.157-0.172,54.313-1.509,81.471-1.465
	c32.043,0.054,64.077,1.042,96.11,1.647C282.288,112.053,283.734,112.343,285.75,112.574z"/>
</svg>
